<svg xmlns="http://www.w3.org/2000/svg" viewBox="0 0 900 420" width="900" height="420">
  <defs>
    <!-- Gradients -->
    <linearGradient id="week12Grad" x1="0%" y1="0%" x2="0%" y2="100%">
      <stop offset="0%" style="stop-color:#f97316;stop-opacity:1" />
      <stop offset="100%" style="stop-color:#ea580c;stop-opacity:1" />
    </linearGradient>
    <linearGradient id="week34Grad" x1="0%" y1="0%" x2="0%" y2="100%">
      <stop offset="0%" style="stop-color:#3b82f6;stop-opacity:1" />
      <stop offset="100%" style="stop-color:#2563eb;stop-opacity:1" />
    </linearGradient>
    <linearGradient id="month2Grad" x1="0%" y1="0%" x2="0%" y2="100%">
      <stop offset="0%" style="stop-color:#8b5cf6;stop-opacity:1" />
      <stop offset="100%" style="stop-color:#7c3aed;stop-opacity:1" />
    </linearGradient>
    <linearGradient id="month3Grad" x1="0%" y1="0%" x2="0%" y2="100%">
      <stop offset="0%" style="stop-color:#22c55e;stop-opacity:1" />
      <stop offset="100%" style="stop-color:#16a34a;stop-opacity:1" />
    </linearGradient>
    <linearGradient id="timelineGrad" x1="0%" y1="0%" x2="100%" y2="0%">
      <stop offset="0%" style="stop-color:#f97316" />
      <stop offset="33%" style="stop-color:#3b82f6" />
      <stop offset="66%" style="stop-color:#8b5cf6" />
      <stop offset="100%" style="stop-color:#22c55e" />
    </linearGradient>
    
    <!-- Shadow filter -->
    <filter id="shadow" x="-20%" y="-20%" width="140%" height="140%">
      <feDropShadow dx="0" dy="3" stdDeviation="4" flood-opacity="0.12"/>
    </filter>
  </defs>
  
  <!-- Background -->
  <rect width="900" height="420" fill="#f8fafc"/>
  
  <!-- Subtle pattern -->
  <pattern id="dots" width="20" height="20" patternUnits="userSpaceOnUse">
    <circle cx="10" cy="10" r="1" fill="#e2e8f0"/>
  </pattern>
  <rect width="900" height="420" fill="url(#dots)"/>
  
  <!-- Title -->
  <text x="450" y="35" font-family="Segoe UI, system-ui, sans-serif" font-size="20" font-weight="700" fill="#0f172a" text-anchor="middle">90-Day Platform Engineering Roadmap</text>
  
  <!-- Timeline bar -->
  <rect x="50" y="70" width="800" height="8" rx="4" fill="#e2e8f0"/>
  <rect x="50" y="70" width="800" height="8" rx="4" fill="url(#timelineGrad)"/>
  
  <!-- Timeline markers -->
  <circle cx="100" cy="74" r="12" fill="url(#week12Grad)" stroke="white" stroke-width="3"/>
  <circle cx="320" cy="74" r="12" fill="url(#week34Grad)" stroke="white" stroke-width="3"/>
  <circle cx="540" cy="74" r="12" fill="url(#month2Grad)" stroke="white" stroke-width="3"/>
  <circle cx="760" cy="74" r="12" fill="url(#month3Grad)" stroke="white" stroke-width="3"/>
  
  <!-- Connector lines -->
  <line x1="100" y1="86" x2="100" y2="115" stroke="#f97316" stroke-width="2"/>
  <line x1="320" y1="86" x2="320" y2="115" stroke="#3b82f6" stroke-width="2"/>
  <line x1="540" y1="86" x2="540" y2="115" stroke="#8b5cf6" stroke-width="2"/>
  <line x1="760" y1="86" x2="760" y2="115" stroke="#22c55e" stroke-width="2"/>
  
  <!-- Week 1-2 Card -->
  <g transform="translate(20, 115)">
    <rect width="190" height="280" rx="12" fill="white" filter="url(#shadow)"/>
    <rect width="190" height="50" rx="12" fill="url(#week12Grad)"/>
    <rect x="0" y="38" width="190" height="12" fill="url(#week12Grad)"/>
    <text x="95" y="32" font-family="Segoe UI, system-ui, sans-serif" font-size="14" font-weight="700" fill="white" text-anchor="middle">WEEK 1-2</text>
    <text x="95" y="46" font-family="Segoe UI, system-ui, sans-serif" font-size="10" fill="rgba(255,255,255,0.9)" text-anchor="middle">Listen &amp; Learn</text>
    
    <!-- Items -->
    <g transform="translate(15, 70)">
      <rect width="160" height="36" rx="6" fill="#fff7ed"/>
      <circle cx="14" cy="18" r="6" fill="#f97316"/>
      <text x="28" y="22" font-family="Segoe UI, system-ui, sans-serif" font-size="12" font-weight="600" fill="#9a3412">Pipeline Mapping</text>
    </g>
    
    <g transform="translate(15, 115)">
      <rect width="160" height="70" rx="6" fill="#fff7ed"/>
      <circle cx="14" cy="14" r="6" fill="#f97316"/>
      <text x="28" y="18" font-family="Segoe UI, system-ui, sans-serif" font-size="12" font-weight="600" fill="#9a3412">Quick Wins</text>
      <text x="28" y="36" font-family="Segoe UI, system-ui, sans-serif" font-size="10" fill="#78350f">• DB timeouts</text>
      <text x="28" y="52" font-family="Segoe UI, system-ui, sans-serif" font-size="10" fill="#78350f">• Migration linter</text>
    </g>
    
    <g transform="translate(15, 195)">
      <rect width="160" height="36" rx="6" fill="#fff7ed"/>
      <circle cx="14" cy="18" r="6" fill="#f97316"/>
      <text x="28" y="22" font-family="Segoe UI, system-ui, sans-serif" font-size="12" font-weight="600" fill="#9a3412">Alert Audit</text>
    </g>

    <g transform="translate(15, 240)">
      <rect width="160" height="36" rx="6" fill="#fff7ed"/>
      <circle cx="14" cy="18" r="6" fill="#f97316"/>
      <text x="28" y="22" font-family="Segoe UI, system-ui, sans-serif" font-size="11" font-weight="600" fill="#9a3412">Stakeholder Alignment</text>
    </g>
  </g>
  
  <!-- Week 3-4 Card -->
  <g transform="translate(230, 115)">
    <rect width="190" height="280" rx="12" fill="white" filter="url(#shadow)"/>
    <rect width="190" height="50" rx="12" fill="url(#week34Grad)"/>
    <rect x="0" y="38" width="190" height="12" fill="url(#week34Grad)"/>
    <text x="95" y="32" font-family="Segoe UI, system-ui, sans-serif" font-size="14" font-weight="700" fill="white" text-anchor="middle">WEEK 3-4</text>
    <text x="95" y="46" font-family="Segoe UI, system-ui, sans-serif" font-size="10" fill="rgba(255,255,255,0.9)" text-anchor="middle">Foundations</text>
    
    <!-- Items -->
    <g transform="translate(15, 70)">
      <rect width="160" height="36" rx="6" fill="#eff6ff"/>
      <circle cx="14" cy="18" r="6" fill="#3b82f6"/>
      <text x="28" y="22" font-family="Segoe UI, system-ui, sans-serif" font-size="12" font-weight="600" fill="#1e40af">Blue/Green Deploy</text>
    </g>
    
    <g transform="translate(15, 115)">
      <rect width="160" height="36" rx="6" fill="#eff6ff"/>
      <circle cx="14" cy="18" r="6" fill="#3b82f6"/>
      <text x="28" y="22" font-family="Segoe UI, system-ui, sans-serif" font-size="12" font-weight="600" fill="#1e40af">Alert Noise Cut 40%+</text>
    </g>
    
    <g transform="translate(15, 160)">
      <rect width="160" height="36" rx="6" fill="#eff6ff"/>
      <circle cx="14" cy="18" r="6" fill="#3b82f6"/>
      <text x="28" y="22" font-family="Segoe UI, system-ui, sans-serif" font-size="12" font-weight="600" fill="#1e40af">Incident Response</text>
    </g>
    
    <g transform="translate(15, 205)">
      <rect width="160" height="36" rx="6" fill="#eff6ff"/>
      <circle cx="14" cy="18" r="6" fill="#3b82f6"/>
      <text x="28" y="22" font-family="Segoe UI, system-ui, sans-serif" font-size="12" font-weight="600" fill="#1e40af">Rollback Drill</text>
    </g>
  </g>
  
  <!-- Month 2 Card -->
  <g transform="translate(440, 115)">
    <rect width="190" height="280" rx="12" fill="white" filter="url(#shadow)"/>
    <rect width="190" height="50" rx="12" fill="url(#month2Grad)"/>
    <rect x="0" y="38" width="190" height="12" fill="url(#month2Grad)"/>
    <text x="95" y="32" font-family="Segoe UI, system-ui, sans-serif" font-size="14" font-weight="700" fill="white" text-anchor="middle">MONTH 2</text>
    <text x="95" y="46" font-family="Segoe UI, system-ui, sans-serif" font-size="10" fill="rgba(255,255,255,0.9)" text-anchor="middle">Acceleration</text>
    
    <!-- Items -->
    <g transform="translate(15, 70)">
      <rect width="160" height="36" rx="6" fill="#f5f3ff"/>
      <circle cx="14" cy="18" r="6" fill="#8b5cf6"/>
      <text x="28" y="22" font-family="Segoe UI, system-ui, sans-serif" font-size="12" font-weight="600" fill="#5b21b6">Feature Flags</text>
    </g>
    
    <g transform="translate(15, 115)">
      <rect width="160" height="36" rx="6" fill="#f5f3ff"/>
      <circle cx="14" cy="18" r="6" fill="#8b5cf6"/>
      <text x="28" y="22" font-family="Segoe UI, system-ui, sans-serif" font-size="12" font-weight="600" fill="#5b21b6">Automated Rollback</text>
    </g>
    
    <g transform="translate(15, 160)">
      <rect width="160" height="36" rx="6" fill="#f5f3ff"/>
      <circle cx="14" cy="18" r="6" fill="#8b5cf6"/>
      <text x="28" y="22" font-family="Segoe UI, system-ui, sans-serif" font-size="12" font-weight="600" fill="#5b21b6">Staging Parity</text>
    </g>
    
    <g transform="translate(15, 205)">
      <rect width="160" height="36" rx="6" fill="#f5f3ff"/>
      <circle cx="14" cy="18" r="6" fill="#8b5cf6"/>
      <text x="28" y="22" font-family="Segoe UI, system-ui, sans-serif" font-size="12" font-weight="600" fill="#5b21b6">SRE Champions</text>
    </g>
  </g>
  
  <!-- Month 3 Card -->
  <g transform="translate(650, 115)">
    <rect width="190" height="280" rx="12" fill="white" filter="url(#shadow)"/>
    <rect width="190" height="50" rx="12" fill="url(#month3Grad)"/>
    <rect x="0" y="38" width="190" height="12" fill="url(#month3Grad)"/>
    <text x="95" y="32" font-family="Segoe UI, system-ui, sans-serif" font-size="14" font-weight="700" fill="white" text-anchor="middle">MONTH 3</text>
    <text x="95" y="46" font-family="Segoe UI, system-ui, sans-serif" font-size="10" fill="rgba(255,255,255,0.9)" text-anchor="middle">Scale &amp; Strategy</text>
    
    <!-- Items -->
    <g transform="translate(15, 70)">
      <rect width="160" height="36" rx="6" fill="#f0fdf4"/>
      <circle cx="14" cy="18" r="6" fill="#22c55e"/>
      <text x="28" y="22" font-family="Segoe UI, system-ui, sans-serif" font-size="12" font-weight="600" fill="#166534">Service Extraction</text>
    </g>
    
    <g transform="translate(15, 115)">
      <rect width="160" height="36" rx="6" fill="#f0fdf4"/>
      <circle cx="14" cy="18" r="6" fill="#22c55e"/>
      <text x="28" y="22" font-family="Segoe UI, system-ui, sans-serif" font-size="12" font-weight="600" fill="#166534">SLO Dashboards</text>
    </g>
    
    <g transform="translate(15, 160)">
      <rect width="160" height="36" rx="6" fill="#f0fdf4"/>
      <circle cx="14" cy="18" r="6" fill="#22c55e"/>
      <text x="28" y="22" font-family="Segoe UI, system-ui, sans-serif" font-size="12" font-weight="600" fill="#166534">Leadership Review</text>
    </g>
    
    <!-- Success indicator -->
    <g transform="translate(15, 215)">
      <rect width="160" height="36" rx="6" fill="#dcfce7" stroke="#22c55e" stroke-width="1" stroke-dasharray="4,2"/>
      <text x="80" y="22" font-family="Segoe UI, system-ui, sans-serif" font-size="11" font-weight="600" fill="#166534" text-anchor="middle">Handoff Ready</text>
    </g>
  </g>
  
  <!-- Progress arrow -->
  <text x="450" y="410" font-family="Segoe UI, system-ui, sans-serif" font-size="11" fill="#64748b" text-anchor="middle">
    ← Quick Wins &amp; Credibility │ Build Trust │ Strategic Impact →
  </text>
</svg>
